<svg width="65" height="36" viewBox="0 0 65 36" fill="none" xmlns="http://www.w3.org/2000/svg">
<path d="M11.31 12.3645C11.31 12.7675 11.284 13.1315 11.232 13.4565H3.0225C3.0875 14.3145 3.406 15.0035 3.978 15.5235C4.55 16.0435 5.252 16.3035 6.084 16.3035C7.28 16.3035 8.125 15.803 8.619 14.802H11.0175C10.6925 15.79 10.101 16.6025 9.243 17.2395C8.398 17.8635 7.345 18.1755 6.084 18.1755C5.057 18.1755 4.134 17.948 3.315 17.493C2.509 17.025 1.872 16.375 1.404 15.543C0.949 14.698 0.7215 13.723 0.7215 12.618C0.7215 11.513 0.9425 10.5445 1.3845 9.7125C1.8395 8.8675 2.47 8.2175 3.276 7.7625C4.095 7.3075 5.031 7.08 6.084 7.08C7.098 7.08 8.0015 7.301 8.7945 7.743C9.5875 8.185 10.205 8.809 10.647 9.615C11.089 10.408 11.31 11.3245 11.31 12.3645ZM8.9895 11.6625C8.9765 10.8435 8.684 10.187 8.112 9.693C7.54 9.199 6.8315 8.952 5.9865 8.952C5.2195 8.952 4.563 9.199 4.017 9.693C3.471 10.174 3.146 10.8305 3.042 11.6625H8.9895ZM26.5042 7.08C27.3492 7.08 28.1032 7.2555 28.7662 7.6065C29.4422 7.9575 29.9687 8.4775 30.3457 9.1665C30.7357 9.8555 30.9307 10.6875 30.9307 11.6625V18H28.7272V11.994C28.7272 11.032 28.4867 10.2975 28.0057 9.7905C27.5247 9.2705 26.8682 9.0105 26.0362 9.0105C25.2042 9.0105 24.5412 9.2705 24.0472 9.7905C23.5662 10.2975 23.3257 11.032 23.3257 11.994V18H21.1222V11.994C21.1222 11.032 20.8817 10.2975 20.4007 9.7905C19.9197 9.2705 19.2632 9.0105 18.4312 9.0105C17.5992 9.0105 16.9362 9.2705 16.4422 9.7905C15.9612 10.2975 15.7207 11.032 15.7207 11.994V18H13.4977V7.2555H15.7207V8.484C16.0847 8.042 16.5462 7.6975 17.1052 7.4505C17.6642 7.2035 18.2622 7.08 18.8992 7.08C19.7572 7.08 20.5242 7.262 21.2002 7.626C21.8762 7.99 22.3962 8.5165 22.7602 9.2055C23.0852 8.5555 23.5922 8.042 24.2812 7.665C24.9702 7.275 25.7112 7.08 26.5042 7.08ZM38.4199 18.1755C37.4059 18.1755 36.4894 17.948 35.6704 17.493C34.8514 17.025 34.2079 16.375 33.7399 15.543C33.2719 14.698 33.0379 13.723 33.0379 12.618C33.0379 11.526 33.2784 10.5575 33.7594 9.7125C34.2404 8.8675 34.8969 8.2175 35.7289 7.7625C36.5609 7.3075 37.4904 7.08 38.5174 7.08C39.5444 7.08 40.4739 7.3075 41.3059 7.7625C42.1379 8.2175 42.7944 8.8675 43.2754 9.7125C43.7564 10.5575 43.9969 11.526 43.9969 12.618C43.9969 13.71 43.7499 14.6785 43.2559 15.5235C42.7619 16.3685 42.0859 17.025 41.2279 17.493C40.3829 17.948 39.4469 18.1755 38.4199 18.1755ZM38.4199 16.245C38.9919 16.245 39.5249 16.1085 40.0189 15.8355C40.5259 15.5625 40.9354 15.153 41.2474 14.607C41.5594 14.061 41.7154 13.398 41.7154 12.618C41.7154 11.838 41.5659 11.1815 41.2669 10.6485C40.9679 10.1025 40.5714 9.693 40.0774 9.42C39.5834 9.147 39.0504 9.0105 38.4784 9.0105C37.9064 9.0105 37.3734 9.147 36.8794 9.42C36.3984 9.693 36.0149 10.1025 35.7289 10.6485C35.4429 11.1815 35.2999 11.838 35.2999 12.618C35.2999 13.775 35.5924 14.672 36.1774 15.309C36.7754 15.933 37.5229 16.245 38.4199 16.245ZM48.7879 9.069V15.0165C48.7879 15.4195 48.8789 15.712 49.0609 15.894C49.2559 16.063 49.5809 16.1475 50.0359 16.1475H51.4009V18H49.6459C48.6449 18 47.8779 17.766 47.3449 17.298C46.8119 16.83 46.5454 16.0695 46.5454 15.0165V9.069H45.2779V7.2555H46.5454V4.584H48.7879V7.2555H51.4009V9.069H48.7879ZM63.2973 12.3645C63.2973 12.7675 63.2713 13.1315 63.2193 13.4565H55.0098C55.0748 14.3145 55.3933 15.0035 55.9653 15.5235C56.5373 16.0435 57.2393 16.3035 58.0713 16.3035C59.2673 16.3035 60.1123 15.803 60.6063 14.802H63.0048C62.6798 15.79 62.0883 16.6025 61.2303 17.2395C60.3853 17.8635 59.3323 18.1755 58.0713 18.1755C57.0443 18.1755 56.1213 17.948 55.3023 17.493C54.4963 17.025 53.8593 16.375 53.3913 15.543C52.9363 14.698 52.7088 13.723 52.7088 12.618C52.7088 11.513 52.9298 10.5445 53.3718 9.7125C53.8268 8.8675 54.4573 8.2175 55.2633 7.7625C56.0823 7.3075 57.0183 7.08 58.0713 7.08C59.0853 7.08 59.9888 7.301 60.7818 7.743C61.5748 8.185 62.1923 8.809 62.6343 9.615C63.0763 10.408 63.2973 11.3245 63.2973 12.3645ZM60.9768 11.6625C60.9638 10.8435 60.6713 10.187 60.0993 9.693C59.5273 9.199 58.8188 8.952 57.9738 8.952C57.2068 8.952 56.5503 9.199 56.0043 9.693C55.4583 10.174 55.1333 10.8305 55.0293 11.6625H60.9768Z" fill="black"/>
<path d="M15.3465 28.304C15.3465 27.576 15.504 26.9285 15.819 26.3615C16.134 25.7875 16.5715 25.343 17.1315 25.028C17.6985 24.706 18.339 24.545 19.053 24.545C19.928 24.545 20.677 24.776 21.3 25.238C21.923 25.7 22.3395 26.33 22.5495 27.128H20.5755C20.4285 26.82 20.2185 26.5855 19.9455 26.4245C19.6795 26.2635 19.375 26.183 19.032 26.183C18.479 26.183 18.031 26.3755 17.688 26.7605C17.345 27.1455 17.1735 27.66 17.1735 28.304C17.1735 28.948 17.345 29.4625 17.688 29.8475C18.031 30.2325 18.479 30.425 19.032 30.425C19.375 30.425 19.6795 30.3445 19.9455 30.1835C20.2185 30.0225 20.4285 29.788 20.5755 29.48H22.5495C22.3395 30.278 21.923 30.908 21.3 31.37C20.677 31.825 19.928 32.0525 19.053 32.0525C18.339 32.0525 17.6985 31.895 17.1315 31.58C16.5715 31.258 16.134 30.8135 15.819 30.2465C15.504 29.6795 15.3465 29.032 15.3465 28.304ZM30.3375 30.698H27.5865L27.1455 32H25.266L27.933 24.629H30.012L32.679 32H30.7785L30.3375 30.698ZM29.8755 29.312L28.962 26.6135L28.059 29.312H29.8755ZM39.3497 32L37.8167 29.2175H37.3862V32H35.5907V24.629H38.6042C39.1852 24.629 39.6787 24.7305 40.0847 24.9335C40.4977 25.1365 40.8057 25.4165 41.0087 25.7735C41.2117 26.1235 41.3132 26.5155 41.3132 26.9495C41.3132 27.4395 41.1732 27.877 40.8932 28.262C40.6202 28.647 40.2142 28.92 39.6752 29.081L41.3762 32H39.3497ZM37.3862 27.947H38.4992C38.8282 27.947 39.0732 27.8665 39.2342 27.7055C39.4022 27.5445 39.4862 27.317 39.4862 27.023C39.4862 26.743 39.4022 26.5225 39.2342 26.3615C39.0732 26.2005 38.8282 26.12 38.4992 26.12H37.3862V27.947ZM46.3359 26.0675V27.5585H48.7404V28.9445H46.3359V30.5615H49.0554V32H44.5404V24.629H49.0554V26.0675H46.3359Z" fill="black"/>
</svg>
